<?xml version="1.0" encoding="utf-8"?>
<!-- Generator: Adobe Illustrator 23.0.2, SVG Export Plug-In . SVG Version: 6.00 Build 0)  -->
<svg version="1.0" id="Layer_1" xmlns="http://www.w3.org/2000/svg" xmlns:xlink="http://www.w3.org/1999/xlink" x="0px" y="0px"
	 viewBox="0 0 461.4 236" enable-background="new 0 0 461.4 236" xml:space="preserve">
<g>
	<path fill-rule="evenodd" clip-rule="evenodd" fill="#E6E7E7" d="M87.9,16.3c36.8,0,66.8,29.7,68,66.7c0.2,7.5,9.4,17.6,13.7,24.2
		c4.3,5.3-5,5.6-8.8,8.8c-2.9,2.4-2.6,3.6-0.6,7c3.1,5.3,0.3,6.1-4,7.7c3.7,0.8,3.9,7,1,10.1c-2.5,3,0,8.2,0.4,12.7
		c0.8,9-8.9,12.8-18.7,11.6c-6.5-0.8-19.9-3.7-22.1,3.5H59.1C47.5,131.2,19.9,133,19.9,85.3C19.9,47.2,50.3,16.3,87.9,16.3z"/>
	<path fill-rule="evenodd" clip-rule="evenodd" fill="#2D368F" d="M89.8,22.3c33.3,0,60.3,26.9,61.4,60.5c0.2,6.8,8.5,15.9,12.3,22
		c3.9,4.8-4.5,5.1-8,8c-2.6,2.2-2.4,3.2-0.5,6.4c2.8,4.8,0.3,5.6-3.6,7c3.3,0.8,3.6,6.3,0.9,9.1c-2.3,2.7,0,7.4,0.4,11.5
		c0.7,8.1-8.1,11.6-16.9,10.6c-5.9-0.7-18-3.4-20,3.2h-52c-10.5-34-35.4-32.3-35.4-75.6C28.4,50.3,55.9,22.3,89.8,22.3z"/>
	<g>
		<path fill="#E6E7E7" d="M80.5,131.8c0,4.3-3.4,7.8-7.6,7.8c-2.7,0-5-1.4-6.4-3.6v3c0,0.3-0.2,0.6-0.6,0.6c-0.3,0-0.6-0.3-0.6-0.6
			l-0.6-24c0-0.3,0.9,0.1,1.2,0.1c0.4,0,1.4-0.3,1.4,0l-0.8,12.5c1.3-2.2,3.6-3.6,6.4-3.6C77.1,124.1,80.5,127.5,80.5,131.8z
			 M79.3,131.8c0-3.6-2.8-6.5-6.3-6.5c-3.5,0-6.3,2.9-6.3,6.5c0,3.6,2.8,6.5,6.3,6.5C76.5,138.4,79.3,135.5,79.3,131.8z"/>
		<path fill="#E6E7E7" d="M91.6,124.7c0,0.4-0.2,0.6-0.6,0.6c-3.5,0-6.3,2.9-6.3,6.5v7.2c0,0.4-0.2,0.6-0.6,0.6
			c-0.4,0-0.6-0.2-0.6-0.6v-14.3c0-0.4,0.2-0.6,0.6-0.6c0.4,0,0.6,0.2,0.6,0.6v2.9c1.3-2.2,3.6-3.6,6.3-3.6
			C91.4,124.1,91.6,124.3,91.6,124.7z"/>
		<path fill="#E6E7E7" d="M116.3,118.3c0,0.7-0.5,1.2-1.2,1.2c-0.7,0-1.2-0.6-1.2-1.2c0-0.7,0.5-1.3,1.2-1.3
			C115.7,117.1,116.3,117.6,116.3,118.3z M115.6,124.7V139c0,0.4-0.3,0.6-0.6,0.6c-0.4,0-0.6-0.2-0.6-0.6v-14.3
			c0-0.4,0.2-0.6,0.6-0.6C115.4,124.1,115.6,124.3,115.6,124.7z"/>
		<path fill="#E6E7E7" d="M132.8,130.3v8.7c0,0.4-0.2,0.6-0.6,0.6c-0.3,0-0.6-0.2-0.6-0.6v-8.7c0-2.7-2.1-5-4.9-5
			c-2.7,0-4.8,2.2-4.8,5v8.7c0,0.4-0.2,0.6-0.6,0.6c-0.4,0-0.6-0.2-0.6-0.6v-14.3c0-0.4,0.2-0.6,0.6-0.6c0.4,0,0.6,0.2,0.6,0.6v1.9
			c1.1-1.5,2.8-2.5,4.8-2.5C130.1,124.1,132.8,126.8,132.8,130.3z"/>
		<path fill="#E6E7E7" d="M136.1,134.6c0-1,0.3-2,0.8-2.8c0.2-0.3,0.5-0.4,0.9-0.2c0.3,0.2,0.3,0.6,0.2,0.9
			c-0.4,0.6-0.6,1.3-0.6,2.1c0,2.1,1.6,3.8,3.6,3.8s3.7-1.7,3.7-3.8s-1.7-3.8-3.7-3.8h0c-1.8,0-3.2-1.6-3.2-3.4
			c0-1.9,1.5-3.4,3.3-3.4c1.8,0,3.3,1.5,3.3,3.4c0,0.4-0.2,0.6-0.6,0.6s-0.6-0.2-0.6-0.6c0-1.2-0.9-2.1-2.1-2.1
			c-1.1,0-2.1,0.9-2.1,2.1c0,1.2,1,2.1,2.1,2.1h0c2.7,0,4.8,2.3,4.8,5c0,2.8-2.1,5-4.9,5C138.2,139.6,136.1,137.4,136.1,134.6z"/>
		<path fill="#E6E7E7" d="M108.2,131.8c0-3.6-2.8-6.5-6.3-6.5s-6.3,2.9-6.3,6.5c0,3.6,2.8,6.5,6.3,6.5S108.2,135.5,108.2,131.8z
			 M109.4,124.7V139c0,0.4-0.2,0.6-0.6,0.6c-0.4,0-0.6-0.2-0.6-0.6v-2.9c-1.3,2.2-3.6,3.6-6.3,3.6c-4.2,0-7.6-3.5-7.6-7.8
			c0-4.3,3.4-7.8,7.6-7.8c2.7,0,5,1.4,6.3,3.6v-2.9c0-0.4,0.2-0.6,0.6-0.6C109.2,124.1,109.4,124.3,109.4,124.7z"/>
	</g>
	<path fill-rule="evenodd" clip-rule="evenodd" fill="#E6E7E7" d="M112,172l-50.6,3.7c-1.1,0.1-1.9,1-1.8,2l0.3,3.5
		c0.1,1,1,1.8,2.1,1.8l50.6-3.7c1.1-0.1,1.9-1,1.8-2l-0.3-3.5C114,172.7,113.1,171.9,112,172z"/>
	<path fill-rule="evenodd" clip-rule="evenodd" fill="#E6E7E7" d="M89.2,222.1c10.8,0,19.6-6.4,19.6-14.4H69.6
		C69.6,215.6,78.4,222.1,89.2,222.1z"/>
	<path fill-rule="evenodd" clip-rule="evenodd" fill="#E6E7E7" d="M109.9,173.1L65,193c-0.9,0.4-1.4,1.5-0.9,2.5l1.4,3.2
		c0.4,1,1.5,1.4,2.5,1l44.9-19.9c0.9-0.4,1.4-1.5,0.9-2.5l-1.4-3.2C111.9,173.1,110.8,172.7,109.9,173.1z"/>
	<path fill-rule="evenodd" clip-rule="evenodd" fill="#E6E7E7" d="M112.9,195.2l-44.8-1.7c-0.9,0-1.7,0.8-1.8,1.9l-0.1,3.6
		c0,1.1,0.7,2,1.6,2l44.8,1.7c0.9,0,1.7-0.8,1.8-1.9l0.1-3.6C114.6,196.1,113.9,195.2,112.9,195.2z"/>
	<g>
		<g>
			<path fill="#E6E7E7" d="M36.1,78.1c0.3,2,1,3.8,2.1,5.2c1.2,1.5,2.9,2.6,4.7,2.8c0.1,0,0.2,0.1,0.3,0.2c0.7-1.9,2.2-3.6,4.2-4.4
				c0,0,0,0,0,0c-0.9-2-0.7-4.4,0.4-6.2c0.2-0.2,0.5-0.3,0.7-0.2c0.2,0.2,0.3,0.5,0.2,0.7c-1.2,1.9-1.1,4.6,0.3,6.3
				c1.4,1.8,3.9,2.5,6.1,1.8c0.3-0.1,0.6,0.1,0.6,0.3c0.1,0.3-0.1,0.6-0.3,0.7c-0.7,0.2-1.3,0.3-2,0.3c-2,0-3.9-0.9-5.2-2.5
				c-0.1-0.1-0.2-0.3-0.3-0.4c0,0-0.1,0.1-0.1,0.1c-2,0.9-3.6,2.8-3.9,4.8c-0.4,2.1,0.5,4.4,2.2,5.6c1.8,1.2,4.3,1.1,5.9-0.2
				c0.2-0.2,0.5-0.2,0.7,0.1c0.2,0.2,0.2,0.5-0.1,0.7c-1,0.9-2.4,1.3-3.8,1.3c-0.7,0-1.4-0.1-2.1-0.4c0,0.1,0,0.1-0.1,0.2
				c-1.2,1.9-1.6,4.3-1.1,6.6c0.5,2.2,1.8,4.2,3.7,5.5c1.6,1,3.6,1.7,5.8,1.8c1.8,0.1,4.3-0.1,6.6-1.6c2-1.3,3.4-3.4,3.5-5.5
				c0,0,0-0.1,0-0.1c-1.4-0.3-2.6-0.9-3.6-1.8c-2.2-1.9-2.7-5.3-1.3-7.6c0.2-0.2,0.5-0.3,0.7-0.1c0.2,0.2,0.3,0.5,0.1,0.7
				c-1.2,1.8-0.7,4.6,1.1,6.2c1.6,1.5,4.1,2,6.7,1.6c2.4-0.4,4.5-1.7,5.8-3.5c1.4-1.9,1.9-4.4,1.4-6.5c-0.1-0.3,0.1-0.6,0.4-0.6
				c0.3-0.1,0.6,0.1,0.6,0.4c0.2,0.6,0.2,1.2,0.3,1.8c0,0,0,0.1,0,0.1c0.3,2.9,2.5,5.7,5.3,6.7c2.8,1,6.1,0.5,8.7-1.4
				c2.4-1.7,4.1-4.6,4.5-7.8c0-0.1,0.1-0.2,0.1-0.3c0-0.1,0-0.2,0-0.2c0-0.3,0.3-0.5,0.6-0.5c0.3,0,0.5,0.3,0.5,0.6
				c-0.2,1.7,0.5,3.6,1.7,5c1.2,1.3,2.8,2.3,4.7,2.8c3,0.8,6.2,0.4,8.7-1.2c2.4-1.6,4-4.3,4-7.1c-0.5,0.1-1.1,0.2-1.7,0.2
				c0,0,0,0,0,0c-1.8,0-3.7-0.7-5.4-1.8c-0.2-0.2-0.3-0.5-0.2-0.7c0.2-0.2,0.5-0.3,0.7-0.2c1.6,1.1,3.3,1.6,4.9,1.6
				c1.8,0,3.5-0.7,4.5-1.9c1.1-1.3,1.4-3.2,0.6-4.6c-0.1-0.3,0-0.6,0.2-0.7s0.6,0,0.7,0.2c0.9,1.8,0.6,4.1-0.8,5.7
				c-0.5,0.6-1.3,1.2-2.1,1.5c1,1.7,3.2,2.3,5,2.2c3.6-0.1,7.1-2.4,8.7-5.6c1.6-3.2,1.3-7.3-0.8-10.2c-1.1,0.4-2.2,0.5-3.4,0.5
				c-1.7,0-3.5-0.5-5-1.4c-0.2-0.1-0.3-0.5-0.2-0.7c0.1-0.2,0.5-0.3,0.7-0.2c2.8,1.6,6.5,1.6,9.3,0c2.8-1.6,4.7-4.8,4.8-8.1
				c0.1-3.3-1.4-6.5-4.1-8.5c-2.6-2-6.2-2.6-9.4-1.6c-0.3,0.1-0.6-0.1-0.6-0.3c0-0.1,0-0.3,0.1-0.4c-0.2-0.2-0.2-0.4,0-0.6
				c1.8-2.4,2.3-5.8,1.3-8.8c-0.9-2.9-3.1-5.3-6-6.8c-2.6-1.4-5.9-1.9-9.1-1.5c-2.2,0.3-4,0.9-5.5,1.9c-1.5,1-2.6,2.5-3.1,4.1
				c0.6,0.2,1.1,0.5,1.6,0.8c1.9,1.4,3.1,3.7,3.1,6.1c0,0.3-0.2,0.5-0.5,0.5l0,0c-0.3,0-0.5-0.2-0.5-0.5c0-2-1-4-2.7-5.2
				c-1.7-1.2-3.9-1.5-5.8-0.7c-1.9,0.7-3.4,2.4-3.9,4.4C92,47.9,91.7,48,91.5,48c-0.3-0.1-0.4-0.3-0.4-0.6c0.6-2.3,2.3-4.3,4.5-5.1
				c0.5-0.2,1.1-0.3,1.6-0.4c-1.1-3-3.4-5.7-6.4-7.4c-2.8-1.6-6.2-2.6-10-2.7c-3.5-0.1-6.6,0.4-9.3,1.7c-3,1.4-5.5,3.5-6.9,6.2
				c-1.5,2.8-1.8,6-0.9,8.8c0.1,0.1,0.2,0.1,0.3,0.2c3-1.5,6.9-0.9,9.3,1.5c0.2,0.2,0.2,0.5,0,0.7c-0.2,0.2-0.5,0.2-0.7,0
				c-2.1-2.1-5.6-2.6-8.2-1.3c-2.6,1.3-4.2,4.5-3.7,7.4c0,0.3-0.1,0.5-0.4,0.6c0,0-0.1,0-0.1,0c-0.2,0-0.5-0.2-0.5-0.4
				c-0.5-3,0.9-6.2,3.3-8c0,0-0.1-0.1-0.1-0.1c-2.9-1.8-6.4-2.5-9.6-2c-3.5,0.6-6.7,2.9-8.3,6c-1.7,3.2-1.6,7.2,0.3,10.1
				c0,0.1,0.1,0.1,0.1,0.2c2.9-0.7,6-0.4,8.7,0.8c0.3,0.1,0.4,0.4,0.3,0.7C54.3,65,54,65.2,53.7,65c-4-1.8-9.1-1.3-12.6,1.4
				C37.6,69,35.6,73.7,36.1,78.1z M40.5,65.6c1.2-0.9,2.5-1.5,3.9-2c-2-3.2-2.1-7.5-0.3-11c1.7-3.3,5.2-5.8,9.1-6.5
				c3.1-0.6,6.4,0,9.3,1.5c-0.6-2.8-0.2-5.8,1.2-8.5c1.5-2.8,4.2-5.2,7.4-6.6c2.9-1.3,6.1-1.9,9.7-1.7c3.9,0.1,7.5,1.1,10.5,2.8
				c3.3,1.9,5.8,5,6.9,8.3c0.5,0,1,0.1,1.5,0.2c0.5-1.8,1.7-3.5,3.5-4.7c1.6-1.1,3.6-1.8,5.9-2.1c3.5-0.4,6.9,0.1,9.7,1.6
				c3.1,1.6,5.5,4.3,6.5,7.4c1,3.2,0.6,6.7-1.2,9.3c3.3-0.8,6.8,0,9.5,2c2.9,2.2,4.6,5.8,4.5,9.4c-0.1,3.6-2.2,7.1-5.3,8.9
				c-0.3,0.2-0.6,0.3-1,0.5c2.1,3.2,2.4,7.6,0.7,11.1c-1.8,3.6-5.6,6.1-9.5,6.2c-0.1,0-0.3,0-0.4,0c-1.8,0-4-0.6-5.2-2.3
				c-0.2,2.9-1.8,5.8-4.5,7.5c-1.8,1.2-4.1,1.8-6.4,1.8c-1,0-2.1-0.2-3.1-0.4c-2.1-0.6-4-1.6-5.2-3.1c-0.7-0.8-1.3-1.8-1.6-2.9
				c-0.8,2.5-2.4,4.7-4.4,6.2c-1.9,1.4-4.2,2.1-6.4,2.1c-0.9,0-1.9-0.2-2.8-0.4c-0.1,0.1-0.1,0.1-0.2,0.2c-5.8,2-10.8,6.6-13.3,12.2
				l-0.1,0.2c-0.4,0.9-0.8,1.8-1.6,2.5c-0.6,0.4-1.3,0.6-2,0.6c-0.8,0-1.5-0.3-2.2-0.8c-0.8-0.7-1.4-1.8-1.7-3.3
				c-0.1-0.4-0.1-0.7-0.2-1.1c-0.1-0.7-0.2-1.3-0.4-1.9c-2,1-4,1.2-5.6,1.2c-0.2,0-0.3,0-0.5,0c-2.4-0.1-4.6-0.8-6.3-1.9
				c-2.1-1.4-3.6-3.7-4.2-6.1c-0.5-2.5-0.1-5.2,1.2-7.3c0,0,0.1-0.1,0.1-0.1c-0.1-0.1-0.2-0.1-0.4-0.2c-2.1-1.4-3.1-4.1-2.7-6.6
				c0-0.1,0-0.2,0.1-0.3c-0.1,0-0.1,0-0.2,0c0,0-0.1,0-0.1,0c-2-0.3-3.9-1.5-5.3-3.2c-1.2-1.6-2.1-3.5-2.3-5.7
				C34.5,73.4,36.6,68.5,40.5,65.6z M62.7,110.4c0.1,0.3,0.1,0.7,0.2,1c0.3,1.3,0.7,2.2,1.4,2.7c0.8,0.7,2.1,0.7,2.9,0.1
				c0.6-0.5,1-1.2,1.3-2l0.1-0.2c2.5-5.6,7.4-10.2,13.1-12.5c-2-1-3.6-2.7-4.5-4.7c-0.3,1-0.8,2-1.4,2.9c-1.5,2-3.8,3.4-6.4,3.9
				c-0.7,0.1-1.4,0.2-2.1,0.2c-0.3,0-0.6,0-0.9-0.1c0,0,0,0,0,0c-0.2,2.5-1.7,4.8-4,6.3c-0.1,0-0.1,0.1-0.2,0.1
				C62.5,108.9,62.6,109.7,62.7,110.4z"/>
			<path fill="#E6E7E7" d="M98.7,60.8c-1.5,1.6-1.9,4.1-1.1,6.1c0.1,0.3,0,0.6-0.3,0.7c-0.1,0-0.1,0-0.2,0c-0.2,0-0.4-0.1-0.5-0.3
				c-1-2.4-0.5-5.3,1.2-7.2c1.7-1.9,4.6-2.7,7.1-1.9c2.5,0.8,4.4,3,4.7,5.6c0,0.3-0.2,0.5-0.4,0.6c-0.3,0-0.5-0.2-0.6-0.4
				c-0.3-2.1-2-4.1-4-4.7C102.7,58.5,100.2,59.2,98.7,60.8z"/>
			<path fill="#E6E7E7" d="M67.6,69.7c0.3,0,0.5,0.3,0.4,0.6c0,0.3-0.3,0.5-0.6,0.4c-2.9-0.4-5.9,0.9-7.6,3.2
				c-1.7,2.3-2,5.6-0.7,8.2c1.3,2.6,4.3,4.2,7.1,3.9c0.3,0,0.5,0.2,0.6,0.5c0,0.3-0.2,0.5-0.5,0.6c-0.3,0-0.6,0-0.8,0
				c-3,0-5.9-1.8-7.3-4.5c-1.5-2.9-1.2-6.6,0.8-9.3C61,70.7,64.4,69.3,67.6,69.7z"/>
			<g>
				<path fill="#E6E7E7" d="M68.9,79.6c0.2-0.2,0.5-0.2,0.7,0c1.6,1.6,3.9,2.4,6.1,2.1c2.2-0.3,4.3-1.7,5.4-3.6c1-1.8,1.2-4.1,0.5-6
					c-1.1,0.5-2.3,0.8-3.5,0.8c-0.6,0-1.3-0.1-1.9-0.3c-2.2-0.6-4.4-2.5-4.3-5c0-0.3,0.3-0.5,0.5-0.5c0.3,0,0.5,0.3,0.5,0.5
					c-0.1,2,1.7,3.5,3.5,4c2.1,0.6,4.4,0,6.1-1.4c1.7-1.4,2.5-3.6,2.3-5.8c0-0.3,0.2-0.5,0.5-0.6c0.3,0,0.5,0.2,0.6,0.5
					c0.3,2.5-0.8,5.1-2.7,6.7c-0.2,0.2-0.5,0.4-0.8,0.6c0.7,1.9,0.7,4.1,0,6l-0.5,1.1c-1.3,2.2-3.6,3.7-6.1,4
					c-0.4,0-0.7,0.1-1.1,0.1c-2.2,0-4.4-0.9-5.9-2.5C68.7,80.1,68.7,79.8,68.9,79.6z"/>
				<path fill="#E6E7E7" d="M92.3,81.2c0-0.4,0.5-0.6,0.8-0.4c1,0.7,2.3,1.2,3.6,1.2c1.5,0.1,3.2-0.4,4.4-1.3
					c0.6-0.4,1.3-1.1,1.4-2.1c0-0.3,0.3-0.5,0.6-0.4c0.3,0,0.5,0.3,0.4,0.6c-0.2,1.3-1.1,2.2-1.9,2.8c-0.3,0.2-0.7,0.4-1,0.6
					c-1.2,0.6-2.7,1-4.1,0.9c-1.5-0.1-2.9-0.6-4.1-1.4C92.4,81.6,92.3,81.4,92.3,81.2L92.3,81.2z"/>
			</g>
			<path fill="#E6E7E7" d="M89.9,56.3c-0.2,0.2-0.6,0.1-0.7-0.2c-1.8-2.8-5.7-4.1-8.8-2.8c-3.1,1.2-5.1,4.9-4.5,8.2
				c0.1,0.3-0.1,0.6-0.4,0.6c0,0-0.1,0-0.1,0c-0.2,0-0.5-0.2-0.5-0.4c-0.7-3.8,1.5-7.9,5.1-9.3c3.6-1.4,8,0,10.1,3.2
				C90.2,55.8,90.1,56.1,89.9,56.3z"/>
		</g>
	</g>
	<g>
		<path fill="#E6E7E7" d="M108.2,139c-1.3,13.5-3.9,26-8.7,38.7c-0.6,1.5,3.1,2.6,3.7,1.1c4.7-12.7,4.8-26.3,6.2-39.7
			C109.6,137.5,108.3,137.6,108.2,139z"/>
		<path fill="#E6E7E7" d="M65.4,139.2c1.5,13.4,6.5,26.7,9.2,40c0.3,1.6,4.4,1.2,4-0.4c-2.9-13.2-10.6-25.8-12.1-39.6
			C66.4,137.6,65.2,137.7,65.4,139.2z"/>
	</g>
	<g>
		<path fill="#FFFFFF" d="M193.8,114.4c-0.4,0-0.8-0.2-1.1-0.5c-0.6-0.6-0.7-1.6-0.1-2.1l25.2-31.1c2-2.2,2.9-4.8,2.9-7.6
			c0-6.2-5.1-11.3-11.3-11.3c-6.2,0-11.3,5.1-11.3,11.3c0,3.2,1.2,6,3.5,8.2c0.7,0.7,0.7,1.5,0,2.2c-0.6,0.7-1.6,0.7-2.2,0.1
			c-2.9-2.9-4.4-6.3-4.4-10.5c0-7.9,6.5-14.5,14.4-14.5c7.8,0,14.4,6.6,14.4,14.5c0,3.5-1.2,7-3.6,9.6l-23.3,28.7h23.5
			c0.9,0,1.5,0.7,1.5,1.6s-0.7,1.6-1.5,1.6H193.8z"/>
		<path fill="#FFFFFF" d="M270.9,96.2c0,10.1-8.1,18.2-18.1,18.2c-6.5,0-12.1-3.3-15.3-8.5v7.1c0,0.7-0.6,1.4-1.5,1.4
			c-0.7,0-1.4-0.7-1.4-1.4V58.5c0-0.7,0.7-1.4,1.4-1.4c0.9,0,1.5,0.7,1.5,1.4v27.9c3.2-5.2,8.7-8.5,15.3-8.5
			C262.8,78,270.9,86.1,270.9,96.2z M268,96.2c0-8.5-6.8-15.3-15.2-15.3c-8.4,0-15.2,6.8-15.2,15.3c0,8.5,6.8,15.3,15.2,15.3
			C261.2,111.5,268,104.7,268,96.2z"/>
		<path fill="#FFFFFF" d="M297.5,79.4c0,0.9-0.6,1.5-1.5,1.5c-8.4,0-15.2,6.8-15.2,15.3V113c0,0.9-0.6,1.5-1.5,1.5s-1.5-0.6-1.5-1.5
			V79.5c0-0.9,0.6-1.5,1.5-1.5s1.5,0.6,1.5,1.5v6.8c3.2-5.2,8.7-8.4,15.2-8.4C296.9,78,297.5,78.5,297.5,79.4z"/>
		<path fill="#FFFFFF" d="M340.3,79.5V113c0,0.9-0.6,1.5-1.5,1.5s-1.5-0.6-1.5-1.5v-6.9c-3.2,5.2-8.7,8.4-15.2,8.4
			c-10,0-18.1-8.1-18.1-18.2c0-10.1,8.1-18.2,18.1-18.2c6.4,0,12,3.4,15.2,8.4v-6.8c0-0.9,0.6-1.5,1.5-1.5S340.3,78.6,340.3,79.5z
			 M337.3,96.2c0-8.5-6.8-15.3-15.2-15.3c-8.4,0-15.2,6.8-15.2,15.3c0,8.5,6.8,15.3,15.2,15.3C330.5,111.5,337.3,104.7,337.3,96.2z"
			/>
		<path fill="#FFFFFF" d="M356.6,64.6c0,1.6-1.3,2.9-2.9,2.9c-1.6,0-2.9-1.3-2.9-2.9c0-1.6,1.3-3,2.9-3
			C355.3,61.6,356.6,62.9,356.6,64.6z M355.2,79.4V113c0,0.9-0.7,1.5-1.4,1.5c-0.9,0-1.5-0.6-1.5-1.5V79.4c0-0.9,0.6-1.5,1.5-1.5
			C354.5,78,355.2,78.5,355.2,79.4z"/>
		<path fill="#FFFFFF" d="M396.3,92.6v20.3c0,0.9-0.6,1.5-1.5,1.5c-0.7,0-1.4-0.6-1.4-1.5V92.6c0-6.4-5.1-11.7-11.7-11.7
			c-6.4,0-11.6,5.3-11.6,11.7V113c0,0.9-0.6,1.5-1.5,1.5s-1.5-0.6-1.5-1.5V79.5c0-0.9,0.6-1.5,1.5-1.5s1.5,0.6,1.5,1.5v4.4
			c2.6-3.6,6.8-5.9,11.6-5.9C389.9,78,396.3,84.5,396.3,92.6z"/>
		<path fill="#FFFFFF" d="M404.2,102.7c0-2.4,0.7-4.6,2-6.6c0.6-0.7,1.3-0.9,2-0.4c0.7,0.6,0.8,1.4,0.4,2.1c-1,1.5-1.5,3.1-1.5,4.9
			c0,4.8,3.9,8.8,8.7,8.8s8.8-3.9,8.8-8.8c0-4.8-4-8.9-8.8-8.9h-0.1c-4.2,0-7.7-3.7-7.7-7.9c0-4.5,3.5-8,7.8-8s7.9,3.5,7.9,8
			c0,0.9-0.6,1.5-1.5,1.5s-1.5-0.6-1.5-1.5c0-2.9-2.1-5-5-5c-2.7,0-5,2.1-5,5c0,2.7,2.3,5,5,5h0.1c6.4,0,11.5,5.3,11.5,11.7
			c0,6.6-5.1,11.7-11.7,11.7S404.2,109.3,404.2,102.7z"/>
	</g>
	<g>
		<path fill="#FFFFFF" d="M190.8,136.1c0-4.3,3.4-7.8,7.7-7.8c2.2,0,4.2,0.9,5.7,2.6c0.2,0.2,0.2,0.6-0.1,0.9
			c-0.2,0.2-0.6,0.2-0.9,0c-1.2-1.4-3-2.1-4.8-2.1c-3.6,0-6.5,2.9-6.5,6.5c0,3.6,2.9,6.5,6.5,6.5c0.4,0,0.6,0.2,0.6,0.6
			s-0.2,0.6-0.6,0.6C194.2,143.9,190.8,140.4,190.8,136.1z"/>
		<path fill="#FFFFFF" d="M216,129c0,0.4-0.2,0.6-0.6,0.6c-3.6,0-6.5,2.9-6.5,6.5v7.1c0,0.4-0.2,0.6-0.6,0.6c-0.4,0-0.6-0.2-0.6-0.6
			V129c0-0.4,0.2-0.6,0.6-0.6c0.4,0,0.6,0.2,0.6,0.6v2.9c1.4-2.2,3.7-3.6,6.5-3.6C215.7,128.4,216,128.6,216,129z"/>
		<path fill="#FFFFFF" d="M220.7,135.6v0.5c0,3.6,2.9,6.5,6.5,6.5c2.1,0,3.9-0.9,5.1-2.6c0.3-0.3,0.5-0.8,0.8-1.3
			c0.2-0.4,0.4-0.5,0.8-0.3c0.3,0.1,0.5,0.5,0.3,0.8c-0.2,0.6-0.6,1-0.9,1.5c-1.5,2-3.7,3.1-6.2,3.1c-4.3,0-7.7-3.5-7.7-7.8
			c0-4.3,3.4-7.8,7.7-7.8c3.8,0,7.1,2.7,7.6,6.5c0,0.2,0,0.3-0.1,0.5c-0.1,0.1-0.3,0.2-0.5,0.2H220.7L220.7,135.6z M221,134.4h12.4
			c-0.7-2.8-3.3-4.7-6.2-4.7C224.2,129.6,221.7,131.6,221,134.4z"/>
		<path fill="#FFFFFF" d="M252.7,129v14.2c0,0.4-0.2,0.6-0.6,0.6c-0.4,0-0.6-0.2-0.6-0.6v-2.9c-1.4,2.2-3.7,3.6-6.5,3.6
			c-4.3,0-7.7-3.5-7.7-7.8c0-4.3,3.4-7.8,7.7-7.8c2.7,0,5.1,1.4,6.5,3.6V129c0-0.4,0.2-0.6,0.6-0.6
			C252.5,128.4,252.7,128.7,252.7,129z M251.4,136.1c0-3.6-2.9-6.5-6.5-6.5s-6.5,2.9-6.5,6.5c0,3.6,2.9,6.5,6.5,6.5
			S251.4,139.7,251.4,136.1z"/>
		<path fill="#FFFFFF" d="M262.3,128.4c0.4,0,0.6,0.2,0.6,0.6c0,0.3-0.2,0.6-0.6,0.6h-3.1v11.2c0,1.1,0.8,1.9,1.9,1.9
			c0.3,0,0.6,0.3,0.6,0.6c0,0.4-0.3,0.6-0.6,0.6c-1.8,0-3.1-1.4-3.1-3.1v-11.2h-1.2c-0.4,0-0.6-0.3-0.6-0.6c0-0.4,0.2-0.6,0.6-0.6
			h1.2V124c0-0.4,0.2-0.6,0.6-0.6c0.3,0,0.6,0.2,0.6,0.6v4.4H262.3z"/>
		<path fill="#FFFFFF" d="M270.1,122.7c0,0.7-0.6,1.2-1.2,1.2c-0.7,0-1.3-0.6-1.3-1.2c0-0.7,0.6-1.3,1.3-1.3
			C269.6,121.4,270.1,122,270.1,122.7z M269.5,129v14.3c0,0.4-0.3,0.6-0.6,0.6c-0.4,0-0.6-0.2-0.6-0.6V129c0-0.4,0.2-0.6,0.6-0.6
			C269.2,128.4,269.5,128.6,269.5,129z"/>
		<path fill="#FFFFFF" d="M280.7,143.5l-6-14.3c-0.1-0.3,0-0.7,0.3-0.8c0.4-0.1,0.6,0,0.8,0.4l5.5,12.9l5.5-12.9
			c0.1-0.3,0.5-0.5,0.8-0.4c0.3,0.1,0.5,0.5,0.3,0.8l-6,14.3c-0.1,0.2-0.3,0.4-0.6,0.4C281.1,143.9,280.8,143.8,280.7,143.5z"/>
		<path fill="#FFFFFF" d="M292.6,135.6v0.5c0,3.6,2.9,6.5,6.5,6.5c2.1,0,3.9-0.9,5.1-2.6c0.3-0.3,0.5-0.8,0.8-1.3
			c0.2-0.4,0.4-0.5,0.8-0.3c0.3,0.1,0.5,0.5,0.3,0.8c-0.2,0.6-0.6,1-0.9,1.5c-1.5,2-3.7,3.1-6.2,3.1c-4.3,0-7.7-3.5-7.7-7.8
			c0-4.3,3.4-7.8,7.7-7.8c3.8,0,7.1,2.7,7.6,6.5c0,0.2,0,0.3-0.1,0.5c-0.1,0.1-0.3,0.2-0.5,0.2H292.6L292.6,135.6z M292.8,134.4
			h12.4c-0.7-2.8-3.3-4.7-6.2-4.7C296,129.6,293.6,131.6,292.8,134.4z"/>
		<path fill="#FFFFFF" d="M336.7,129v14.2c0,0.4-0.2,0.6-0.6,0.6c-0.4,0-0.6-0.2-0.6-0.6v-2.9c-1.4,2.2-3.7,3.6-6.5,3.6
			c-4.3,0-7.7-3.5-7.7-7.8c0-4.3,3.4-7.8,7.7-7.8c2.7,0,5.1,1.4,6.5,3.6V129c0-0.4,0.2-0.6,0.6-0.6
			C336.5,128.4,336.7,128.7,336.7,129z M335.4,136.1c0-3.6-2.9-6.5-6.5-6.5s-6.5,2.9-6.5,6.5c0,3.6,2.9,6.5,6.5,6.5
			S335.4,139.7,335.4,136.1z"/>
		<path fill="#FFFFFF" d="M355.6,129v17.9c0,4.2-3.4,7.6-7.5,7.6c-4.1,0-7.5-3.4-7.5-7.6c0-0.7,0.1-1.3,0.2-1.9
			c0.1-0.3,0.4-0.5,0.7-0.4c0.3,0.1,0.6,0.4,0.5,0.7c-0.1,0.5-0.2,1-0.2,1.6c0,3.5,2.8,6.3,6.3,6.3c3.5,0,6.3-2.8,6.3-6.3v-6.6
			c-1.4,2.2-3.7,3.6-6.5,3.6c-4.3,0-7.7-3.5-7.7-7.8c0-4.3,3.4-7.8,7.7-7.8c2.8,0,5.1,1.4,6.5,3.6v-3c0-0.3,0.2-0.6,0.6-0.6
			C355.3,128.4,355.6,128.7,355.6,129z M354.4,136.1c0-3.6-2.9-6.5-6.5-6.5s-6.5,2.9-6.5,6.5c0,3.6,2.9,6.5,6.5,6.5
			S354.4,139.7,354.4,136.1z"/>
		<path fill="#FFFFFF" d="M361,135.6v0.5c0,3.6,2.9,6.5,6.5,6.5c2.1,0,3.9-0.9,5.1-2.6c0.3-0.3,0.5-0.8,0.8-1.3
			c0.2-0.4,0.4-0.5,0.8-0.3c0.3,0.1,0.5,0.5,0.3,0.8c-0.2,0.6-0.6,1-0.9,1.5c-1.5,2-3.7,3.1-6.2,3.1c-4.3,0-7.7-3.5-7.7-7.8
			c0-4.3,3.4-7.8,7.7-7.8c3.8,0,7.1,2.7,7.6,6.5c0,0.2,0,0.3-0.1,0.5c-0.1,0.1-0.3,0.2-0.5,0.2H361L361,135.6z M361.3,134.4h12.4
			c-0.7-2.8-3.3-4.7-6.2-4.7C364.5,129.6,362,131.6,361.3,134.4z"/>
		<path fill="#FFFFFF" d="M390.6,134.6v8.6c0,0.4-0.2,0.6-0.6,0.6c-0.3,0-0.6-0.2-0.6-0.6v-8.6c0-2.7-2.2-5-5-5
			c-2.7,0-4.9,2.2-4.9,5v8.7c0,0.4-0.2,0.6-0.6,0.6c-0.4,0-0.6-0.2-0.6-0.6V129c0-0.4,0.2-0.6,0.6-0.6c0.4,0,0.6,0.2,0.6,0.6v1.9
			c1.1-1.5,2.9-2.5,4.9-2.5C387.9,128.4,390.6,131.1,390.6,134.6z"/>
		<path fill="#FFFFFF" d="M394,136.1c0-4.3,3.4-7.8,7.7-7.8c2.2,0,4.2,0.9,5.7,2.6c0.2,0.2,0.2,0.6-0.1,0.9c-0.2,0.2-0.6,0.2-0.9,0
			c-1.2-1.4-3-2.1-4.8-2.1c-3.6,0-6.5,2.9-6.5,6.5c0,3.6,2.9,6.5,6.5,6.5c0.4,0,0.6,0.2,0.6,0.6s-0.2,0.6-0.6,0.6
			C397.4,143.9,394,140.4,394,136.1z"/>
		<path fill="#FFFFFF" d="M424.6,129.2l-11.1,23c-0.1,0.2-0.3,0.3-0.6,0.3c0,0-0.1,0-0.3-0.1c-0.3-0.1-0.4-0.5-0.3-0.8l4.1-8.4
			l-5.5-14.2c-0.1-0.4,0-0.6,0.3-0.8c0.4-0.1,0.6,0,0.8,0.4l5.1,13.1l6.4-13.2c0.2-0.3,0.4-0.5,0.8-0.3
			C424.6,128.6,424.7,129,424.6,129.2z"/>
	</g>
</g>
</svg>
